<svg xmlns="http://www.w3.org/2000/svg" viewBox="0 0 64 64" fill="none" role="img" aria-label="PrivateAI Box">
  <rect width="64" height="64" rx="14" fill="#18181b"/>
  <rect x="1" y="1" width="62" height="62" rx="13" stroke="#10b981" stroke-opacity="0.35" stroke-width="1"/>
  <path
    d="M20 18h18a3 3 0 0 1 3 3v22a3 3 0 0 1-3 3H20a3 3 0 0 1-3-3V21a3 3 0 0 1 3-3Z"
    fill="#27272a"
    stroke="#3f3f46"
    stroke-width="1.2"
  />
  <path d="M38 18v6h6l-6-6Z" fill="#3f3f46"/>
  <path d="M24 28h16M24 33h12M24 38h14" stroke="#71717a" stroke-width="1.5" stroke-linecap="round"/>
  <rect x="26" y="42" width="12" height="9" rx="2" fill="#10b981" fill-opacity="0.2" stroke="#10b981" stroke-width="1.2"/>
  <path
    d="M29 45.5v4M32 44v5.5M35 45.5v4"
    stroke="#10b981"
    stroke-width="1.2"
    stroke-linecap="round"
  />
  <circle cx="46" cy="20" r="3" fill="#10b981"/>
  <path d="M46 17v-2M46 25v2M49 20h2M41 20h-2" stroke="#10b981" stroke-width="1" stroke-linecap="round" opacity="0.7"/>
</svg>
